#!OML:ASF H:\Male1\Project 1\Capture day 1\Session 1\Male1.ASF
:FULLY-SPECIFIED
:DEGREES
269
root 38.3247 15.3166 0.791456 934.491 83.7944 940.595
lowerback 5.06883 0.193938 5.03059
upperback 4.93843 0.553718 0.837303
thorax 2.29534 0.476487 -1.96789
lowerneck -12.0515 2.97428 6.13137
upperneck 21.7684 3.81752 -2.78738
head 8.97605 2.13217 -1.52352
rclavicle -1.07095e-014 -1.56543e-015
rhumerus -37.4615 5.9987 -89.3357
rradius 35.3667
rwrist -17.6643
rhand -17.1316 0.585626
rfingers 7.12502
rthumb 9.10831 -29.1977
lclavicle -1.07095e-014 -1.56543e-015
lhumerus -26.3711 -5.63711 88.6025
lradius 21.7253
lwrist -12.1984
lhand -17.8052 15.2823
lfingers 7.12502
lthumb 8.45834 45.0929
rfemur -7.79702 7.11113 30.8389
rtibia 21.6548
rfoot -19.6157 -22.6531
rtoes -7.52243
lfemur -6.79099 -2.19243 -16.2188
ltibia 67.178
lfoot -6.89119 3.09217
ltoes -17.4013
270
root 38.4822 15.3238 0.815507 939.108 84.0549 944.989
lowerback 5.39947 0.423916 5.20216
upperback 4.90786 0.889654 0.901763
thorax 2.10611 0.644622 -2.01163
lowerneck -11.9313 2.9345 6.15738
upperneck 21.2526 3.74333 -2.83406
head 8.77456 2.08417 -1.55453
rclavicle 4.06887e-016 1.46355e-014
rhumerus -37.127 5.96828 -89.1481
rradius 35.7646
rwrist -17.5422
rhand -16.9938 -0.511338
rfingers 7.12502
rthumb 9.24131 -30.2888
lclavicle 4.06887e-016 1.46355e-014
lhumerus -27.1919 -3.21558 87.0419
lradius 20.2869
lwrist -15.0841
lhand -17.3205 15.2223
lfingers 7.12502
lthumb 8.92612 45.0135
rfemur -7.5426 7.9938 31.3618
rtibia 21.9894
rfoot -23.4982 -20.8221
rtoes 8.40429
lfemur -9.28409 -2.31891 -15.9412
ltibia 68.1854
lfoot -7.38552 4.19625
ltoes -20.1878
271
root 38.6926 15.3446 0.831374 931.515 84.4888 937.141
lowerback 4.86257 0.523737 4.34749
upperback 5.07892 0.959019 0.675117
thorax 2.57272 0.669285 -1.75948
lowerneck -11.9266 2.90927 6.22871
upperneck 20.8542 3.69662 -2.965
head 8.63933 2.04483 -1.61663
rclavicle 1.57552e-014 -8.32411e-015
rhumerus -36.7754 6.0467 -88.9736
rradius 36.0816
rwrist -17.6552
rhand -16.8912 -0.953602
rfingers 7.12502
rthumb 9.34029 -30.7267
lclavicle 1.57552e-014 -8.32411e-015
lhumerus -28.1866 -1.31422 85.6144
lradius 19.3834
lwrist -17.0053
lhand -17.0766 15.5739
lfingers 7.12502
lthumb 9.16144 45.3549
rfemur -7.10794 7.40251 30.5399
rtibia 22.4856
rfoot -24.1257 -19.9294
rtoes 8.50889
lfemur -11.0853 -3.31369 -17.2091
ltibia 68.19
lfoot -7.71905 5.38432
ltoes -18.62
272
root 38.8604 15.3499 0.845963 929.388 85.0308 934.807
lowerback 5.00178 0.730476 3.94495
upperback 5.09468 1.23125 0.539919
thorax 2.52075 0.794377 -1.68249
lowerneck -11.8688 2.89987 6.25198
upperneck 20.5109 3.68387 -3.06443
head 8.51373 2.02358 -1.65641
rclavicle 9.2101e-015 -6.27414e-016
rhumerus -36.4328 6.34574 -88.882
rradius 36.2522
rwrist -18.0536
rhand -16.8945 -0.879879
rfingers 7.12502
rthumb 9.33709 -30.6531
lclavicle 9.2101e-015 -6.27414e-016
lhumerus -29.3991 0.103627 84.3041
lradius 18.9379
lwrist -17.9827
lhand -16.9578 15.8288
lfingers 7.12502
lthumb 9.27602 45.6047
rfemur -6.95741 7.35913 30.2383
rtibia 23.2287
rfoot -21.8658 -21.6022
rtoes -8.64259
lfemur -13.0151 -3.84601 -17.8652
ltibia 67.6628
lfoot -10.0921 6.31029
ltoes -11.4335
273
root 39.0198 15.3566 0.861591 927.547 85.5397 932.656
lowerback 5.14838 0.926313 3.63655
upperback 5.04025 1.49004 0.356808
thorax 2.39328 0.913293 -1.70929
lowerneck -11.8896 2.89891 6.1462
upperneck 20.2968 3.64553 -2.8651
head 8.43782 2.01184 -1.5759
rclavicle 2.53761e-014 -1.19768e-014
rhumerus -36.1412 6.50075 -88.8663
rradius 36.4921
rwrist -18.3328
rhand -16.8682 -0.844566
rfingers 7.12502
rthumb 9.36255 -30.6166
lclavicle 2.53761e-014 -1.19768e-014
lhumerus -30.7309 0.843403 83.1092
lradius 18.8777
lwrist -17.8594
lhand -17.0549 15.6388
lfingers 7.12502
lthumb 9.18237 45.4189
rfemur -7.12679 7.66131 30.0051
rtibia 24.196
rfoot -21.6747 -22.1773
rtoes -14.7425
lfemur -14.9569 -4.35126 -18.4172
ltibia 66.5286
lfoot -11.1315 7.33177
ltoes -10.8636
274
root 39.2118 15.356 0.87468 917.06 85.7941 922.004
lowerback 4.85487 0.982279 2.86846
upperback 5.18344 1.53442 0.0736948
thorax 2.69255 0.923394 -1.56318
lowerneck -11.9032 2.84623 6.12211
upperneck 20.0181 3.52682 -2.71743
head 8.33783 1.96171 -1.53566
rclavicle 2.1183e-014 -2.68359e-015
rhumerus -35.7842 6.57525 -88.8172
rradius 36.7572
rwrist -18.4675
rhand -16.7883 -0.875659
rfingers 7.12502
rthumb 9.43965 -30.6443
lclavicle 2.1183e-014 -2.68359e-015
lhumerus -32.0452 1.12588 82.1378
lradius 19.1431
lwrist -16.888
lhand -17.3198 15.1768
lfingers 7.12502
lthumb 8.9268 44.9679
rfemur -6.90949 7.31352 29.2577
rtibia 25.1399
rfoot -22.727 -21.8792
rtoes -14.9387
lfemur -16.2876 -5.32789 -19.572
ltibia 64.834
lfoot -11.4327 8.5223
ltoes -13.7148
275
root 39.3472 15.3514 0.890753 916.72 86.3241 921.372
lowerback 5.28453 1.15211 2.57192
upperback 5.09784 1.7663 0.0190842
thorax 2.36703 1.02581 -1.47163
lowerneck -11.9548 2.88189 6.20514
upperneck 19.762 3.56121 -2.82377
head 8.26637 1.96626 -1.58106
rclavicle -1.49026e-014 3.52843e-015
rhumerus -35.4438 6.76716 -88.7295
rradius 37.0664
rwrist -18.605
rhand -16.8436 -0.841928
rfingers 7.12502
rthumb 9.38625 -30.6129
lclavicle -1.49026e-014 3.52843e-015
lhumerus -33.3873 1.36592 81.346
lradius 19.5995
lwrist -15.5755
lhand -17.7059 14.5079
lfingers 7.12502
lthumb 8.55419 44.3147
rfemur -7.23795 8.53433 29.3092
rtibia 26.1064
rfoot -23.925 -22.4049
rtoes -13.7395
lfemur -18.0441 -5.60032 -19.7325
ltibia 62.8285
lfoot -12.0185 9.32272
ltoes -14.3482
276
root 39.508 15.3413 0.901827 914.397 86.5371 918.794
lowerback 5.30887 1.21054 2.33821
upperback 5.07034 1.83715 -0.0734554
thorax 2.32312 1.05435 -1.43936
lowerneck -11.936 2.90287 6.31321
upperneck 19.5354 3.57432 -2.91111
head 8.19146 1.96665 -1.62718
rclavicle -2.27608e-014 -1.59028e-015
rhumerus -35.2979 6.81419 -88.7085
rradius 37.4704
rwrist -18.7396
rhand -17.0576 -0.643971
rfingers 7.12502
rthumb 9.17977 -30.4242
lclavicle -2.27608e-014 -1.59028e-015
lhumerus -34.7744 1.40272 80.6189
lradius 20.0499
lwrist -14.2724
lhand -17.5352 14.062
lfingers 7.12502
lthumb 8.7189 43.8619
rfemur -7.2242 8.84271 29.2924
rtibia 26.904
rfoot -24.7649 -22.3178
rtoes -13.7298
lfemur -19.4792 -6.14565 -19.9634
ltibia 60.4633
lfoot -13.2257 10.0167
ltoes -13.6295
277
root 39.6991 15.3281 0.907533 901.345 86.4758 905.845
lowerback 5.18611 1.15158 1.56523
upperback 5.24469 1.74057 -0.29324
thorax 2.55026 0.992611 -1.22396
lowerneck -11.9056 2.88706 6.25988
upperneck 19.3306 3.53506 -2.82252
head 8.11307 1.94839 -1.59359
rclavicle 1.52878e-014 -6.75868e-015
rhumerus -35.196 7.18532 -88.7932
rradius 37.8111
rwrist -19.1702
rhand -17.3415 -0.455222
rfingers 7.12502
rthumb 8.9058 -30.2473
lclavicle 1.52878e-014 -6.75868e-015
lhumerus -36.1296 1.53675 79.94
lradius 20.608
lwrist -13.0835
lhand -15.4934 14.9947
lfingers 7.12502
lthumb 10.6888 44.7028
rfemur -6.46265 8.36052 28.6637
rtibia 27.4489
rfoot -25.2388 -21.9682
rtoes -14.5933
lfemur -20.0593 -7.01381 -20.9324
ltibia 57.6846
lfoot -14.3104 10.5435
ltoes -12.6084
278
root 39.8358 15.317 0.917419 903.571 86.828 907.572
lowerback 5.2664 1.27551 1.56261
upperback 5.09111 1.90053 -0.294769
thorax 2.35147 1.06695 -1.23349
lowerneck -11.9487 2.86842 6.19405
upperneck 19.1189 3.48698 -2.72919
head 8.04514 1.92405 -1.5566
rclavicle -5.8393e-015 7.95139e-016
rhumerus -35.0332 7.81831 -88.9439
rradius 38.1166
rwrist -19.9702
rhand -17.6347 -0.299608
rfingers 7.12502
rthumb 8.62288 -30.1035
lclavicle -5.8393e-015 7.95139e-016
lhumerus -37.2491 1.70955 79.315
lradius 21.3869
lwrist -11.5165
lhand -16.6219 13.9504
lfingers 7.12502
lthumb 9.6002 43.7117
rfemur -6.51858 9.18268 29.0235
rtibia 27.6786
rfoot -25.5522 -22.4438
rtoes -14.3643
lfemur -21.5937 -7.27043 -20.6462
ltibia 54.792
lfoot -15.0223 10.6473
ltoes -11.6769
279
root 40.0155 15.3237 0.919092 896.227 86.7676 899.86
lowerback 4.72173 1.28299 1.17221
upperback 5.16333 1.8934 -0.453509
thorax 2.72215 1.05628 -1.16143
lowerneck -11.9913 2.86819 6.24177
upperneck 18.8721 3.46337 -2.75001
head 7.97094 1.90766 -1.5738
rclavicle -1.01877e-014 2.13694e-015
rhumerus -34.9405 7.87833 -88.9316
rradius 38.6772
rwrist -20.2586
rhand -17.6162 -0.421026
rfingers 7.12502
rthumb 8.64075 -30.2242
lclavicle -1.01877e-014 2.13694e-015
lhumerus -38.1659 1.84205 78.7623
lradius 21.9291
lwrist -10.6549
lhand -15.8939 14.4102
lfingers 7.12502
lthumb 10.3025 44.1378
rfemur -6.01293 9.10448 28.6853
rtibia 27.5487
rfoot -25.8614 -22.5886
rtoes -15.1559
lfemur -22.412 -7.95946 -21.0757
ltibia 51.5622
lfoot -15.7704 10.9393
ltoes -11.7342
280
root 40.1741 15.3344 0.924256 889.867 86.8429 893.444
lowerback 4.84206 1.34409 0.846518
upperback 5.1857 1.97304 -0.612421
thorax 2.67511 1.0898 -1.14746
lowerneck -11.9425 2.855 6.24959
upperneck 18.6667 3.4236 -2.68486
head 7.8913 1.89168 -1.55847
rclavicle 3.62782e-015 8.94531e-016
rhumerus -34.9707 7.70959 -88.9382
rradius 39.2146
rwrist -20.2707
rhand -17.4948 -0.707779
rfingers 7.12502
rthumb 8.75784 -30.5061
lclavicle 3.62782e-015 8.94531e-016
lhumerus -39.0762 1.97543 78.1902
lradius 22.5048
lwrist -9.92483
lhand -14.9296 14.9219
lfingers 7.12502
lthumb 11.2327 44.6012
rfemur -5.12163 9.53481 28.5538
rtibia 27.0962
rfoot -26.199 -23.0378
rtoes -15.9468
lfemur -22.8452 -8.52587 -21.3759
ltibia 48.2827
lfoot -15.8618 11.3759
ltoes -12.2053
281
root 40.3302 15.3358 0.928306 891.271 86.9379 894.725
lowerback 4.78034 1.32137 0.752313
upperback 5.20035 1.93835 -0.544657
thorax 2.71808 1.06809 -1.02232
lowerneck -11.88 2.91689 6.16455
upperneck 18.4924 3.52855 -2.71779
head 7.82611 1.92929 -1.54516
rclavicle 3.97569e-015 -4.47266e-015
rhumerus -34.962 8.17277 -89.0174
rradius 39.5351
rwrist -20.5773
rhand -17.5818 -0.599209
rfingers 7.12502
rthumb 8.67396 -30.401
lclavicle 3.97569e-015 -4.47266e-015
lhumerus -39.9417 2.54339 77.6528
lradius 23.0702
lwrist -9.49689
lhand -14.8052 15.0776
lfingers 7.12502
lthumb 11.3527 44.7503
rfemur -4.1041 9.63798 28.8474
rtibia 26.3707
rfoot -26.8493 -23.2528
rtoes -17.0838
lfemur -23.2755 -9.17307 -21.1784
ltibia 45.1137
lfoot -15.75 11.8542
ltoes -11.9044
282
root 40.5246 15.3405 0.928374 886.076 86.5073 889.486
lowerback 4.17957 1.18958 0.303223
upperback 5.32638 1.75577 -0.647805
thorax 3.17018 0.965784 -0.855674
lowerneck -11.8057 2.92195 6.08149
upperneck 18.4334 3.52987 -2.58999
head 7.78959 1.93611 -1.48999
rclavicle 1.57785e-014 -4.17448e-015
rhumerus -35.1249 8.21803 -89.0787
rradius 39.8922
rwrist -20.4864
rhand -17.6481 -0.408884
rfingers 7.12502
rthumb 8.6099 -30.2133
lclavicle 1.57785e-014 -4.17448e-015
lhumerus -40.6298 3.10141 77.0418
lradius 23.3849
lwrist -9.43061
lhand -14.8187 15.1232
lfingers 7.12502
lthumb 11.3396 44.7966
rfemur -2.80041 8.76608 28.4827
rtibia 25.5648
rfoot -27.1881 -22.7614
rtoes -17.4161
lfemur -23.213 -10.2042 -21.62
ltibia 42.0281
lfoot -15.812 12.3233
ltoes -10.1648
283
root 40.6315 15.3482 0.929034 898.069 87.2917 901.02
lowerback 4.56131 1.39055 0.972762
upperback 4.98842 2.02244 -0.558758
thorax 2.63074 1.11059 -1.15936
lowerneck -11.6855 2.91986 6.18027
upperneck 18.2936 3.50887 -2.58098
head 7.72297 1.93267 -1.5071
rclavicle -2.29845e-015 1.09332e-015
rhumerus -35.2191 8.28769 -89.2583
rradius 39.9633
rwrist -20.3199
rhand -17.7566 -0.37848
rfingers 7.12502
rthumb 8.50523 -30.1872
lclavicle -2.29845e-015 1.09332e-015
lhumerus -41.1185 3.54168 76.4144
lradius 23.5017
lwrist -9.22482
lhand -15.104 14.7629
lfingers 7.12502
lthumb 11.0644 44.4512
rfemur -2.45594 9.90759 29.4827
rtibia 24.7441
rfoot -26.9983 -23.1766
rtoes -16.7683
lfemur -24.0726 -10.6516 -20.4596
ltibia 39.3264
lfoot -15.3284 13.2462
ltoes -8.05431
